/vscmnt/brussel_pixiu_data/_data_brussel/112/vsc11236/PredSimResults/SUBJ11opt3D/trackIG/worker_15.mot
version=1
nRows=9
nColumns=50
inDegrees=yes
endheader
                time	         pelvis_tilt	         pelvis_list	     pelvis_rotation	           pelvis_tx	           pelvis_ty	           pelvis_tz	       hip_flexion_r	     hip_adduction_r	      hip_rotation_r	        knee_angle_r	       ankle_angle_r	         mtp_angle_r	       hip_flexion_l	     hip_adduction_l	      hip_rotation_l	        knee_angle_l	       ankle_angle_l	         mtp_angle_l	    lumbar_extension	      lumbar_bending	     lumbar_rotation	 ercspn_r/activation	 intobl_r/activation	 extobl_r/activation	    abd_r/activation	    add_r/activation	hamstrings_r/activation	bifemsh_r/activation	glut_max_r/activation	iliopsoas_r/activation	rect_fem_r/activation	  vasti_r/activation	gastroc_r/activation	 soleus_r/activation	tib_ant_r/activation	 ercspn_l/activation	 intobl_l/activation	 extobl_l/activation	    abd_l/activation	    add_l/activation	hamstrings_l/activation	bifemsh_l/activation	glut_max_l/activation	iliopsoas_l/activation	rect_fem_l/activation	  vasti_l/activation	gastroc_l/activation	 soleus_l/activation	tib_ant_l/activation	
          0.79727240	         -7.19197028	         -2.45078813	          4.68753631	          1.59454479	          0.94582538	          0.00106635	         35.82125673	          2.11149759	          0.48261821	        -31.17728082	          7.66106958	          0.41458145	        -20.81841091	         -2.75358023	         -2.91934364	        -11.93722237	        -15.37353884	         43.21005412	        -11.72161167	          4.01615787	        -10.21600248	          0.12303808	          0.05098900	          0.02612396	          0.02586026	          0.44305670	          0.32403657	          0.45829353	          0.06526153	          0.12895390	          0.00999999	          0.00999999	          0.01056561	          0.00999999	          0.79246084	          0.04271702	          0.00999999	          0.02509805	          0.00999999	          0.26514763	          0.02443492	          0.20903349	          0.00999999	          0.81639558	          0.04785968	          0.01085336	          0.15036925	          0.10486580	          0.00999999	
          0.80524512	         -7.11960158	         -2.35159017	          4.46818372	          1.61299580	          0.94081811	          0.00228964	         35.89024236	          2.41513792	          0.74533444	        -33.07034869	          7.63017375	          0.40551277	        -20.49902950	         -2.75841479	         -3.31609493	        -14.56585594	        -15.61073059	         43.18661321	        -11.40814339	          3.96974215	        -10.24756667	          0.10860657	          0.04500835	          0.02305980	          0.02282703	          0.51625735	          0.28602935	          0.40453891	          0.14097301	          0.11382851	          0.00999999	          0.00999999	          0.00999999	          0.00999999	          0.69951074	          0.04347047	          0.00999999	          0.02215422	          0.00999999	          0.33351305	          0.02156887	          0.18451533	          0.00999999	          0.72063810	          0.04224607	          0.00999999	          0.13273199	          0.09256577	          0.00999999	
          0.81321784	         -7.03613193	         -2.24737944	          4.22457694	          1.63159430	          0.93553362	          0.00352318	         35.92931665	          2.70181363	          1.01070389	        -35.44481240	          8.52199342	          0.62545604	        -19.93385746	         -2.77728986	         -3.72413557	        -17.65699828	        -15.83014911	         42.90075805	        -11.07253779	          3.91958910	        -10.23537698	          0.09586778	          0.03972919	          0.02035505	          0.14035815	          0.53788693	          0.25248011	          0.35708933	          0.16118938	          0.10047722	          0.00999999	          0.19154376	          0.01453956	          0.11059346	          0.61746303	          0.09342678	          0.00999999	          0.01955569	          0.00999999	          0.37695143	          0.02698940	          0.16287298	          0.00999999	          0.63611230	          0.03729090	          0.00999999	          0.11716346	          0.08170846	          0.00999999	
          0.82119057	         -6.94668705	         -2.16265711	          3.95144078	          1.65020567	          0.93025243	          0.00472449	         35.82604843	          2.97169373	          1.21870531	        -37.87156165	         10.75649601	          1.41414226	        -19.10508389	         -2.83523377	         -4.15725793	        -21.17479288	        -16.13516183	         42.26584760	        -10.72986353	          3.90015728	        -10.16812711	          0.08462316	          0.03506923	          0.01796754	          0.23811548	          0.50149032	          0.22286597	          0.31520526	          0.26069685	          0.08869195	          0.00999999	          0.25054028	          0.01283417	          0.12866936	          0.54503895	          0.09826738	          0.00999999	          0.01726194	          0.00999999	          0.41614816	          0.02382374	          0.14376912	          0.00999999	          0.56150079	          0.03291694	          0.00999999	          0.10342101	          0.07212463	          0.00999999	
          0.82916329	         -6.85597535	         -2.10724808	          3.65110127	          1.66861014	          0.92528459	          0.00588160	         35.59175818	          3.26219953	          1.41654166	        -40.11482366	         13.16434962	          2.43316606	        -17.98591600	         -2.94713459	         -4.59963778	        -25.07535752	        -16.64736436	         41.21322024	        -10.40885027	          3.92560510	        -10.04518914	          0.07469746	          0.03095586	          0.01586008	          0.29928120	          0.44266902	          0.19672535	          0.27823389	          0.23011894	          0.07828900	          0.00999999	          0.40729862	          0.01132881	          0.19411551	          0.48110970	          0.08674130	          0.04561146	          0.01523724	          0.01242804	          0.39917120	          0.02102938	          0.12690601	          0.00999999	          0.49564068	          0.02905602	          0.00999999	          0.09129045	          0.06366492	          0.00999999	
          0.83713602	         -6.76719823	         -2.07516393	          3.32662158	          1.68666349	          0.92084702	          0.00697134	         35.22490554	          3.57020495	          1.62682264	        -42.03560790	         15.23639614	          3.58947189	        -16.58369104	         -3.11044334	         -5.03586605	        -29.27426696	        -17.40193991	         39.57105909	        -10.13042386	          3.99041752	         -9.86583105	          0.06593597	          0.02732495	          0.01399980	          0.34514320	          0.39074705	          0.17365085	          0.24559901	          0.20312760	          0.06910625	          0.00999999	          0.56216133	          0.01000002	          0.24773326	          0.42467890	          0.15121166	          0.12849520	          0.01552628	          0.01575935	          0.35235122	          0.01856278	          0.11202082	          0.01392525	          0.43750551	          0.02564795	          0.00999999	          0.08058272	          0.05619747	          0.07912272	
          0.84510874	         -6.68259487	         -2.06569171	          2.98190479	          1.70430145	          0.91709320	          0.00797733	         34.67938915	          3.88686439	          1.84814968	        -43.55973416	         17.04785238	          4.81668929	        -14.93165324	         -3.31857008	         -5.43843485	        -33.69387778	        -18.22877564	         36.97769148	         -9.90398344	          4.08955708	         -9.62544687	          0.05820214	          0.02411993	          0.01235772	          0.36285989	          0.34491516	          0.15328282	          0.21679196	          0.17930216	          0.06100057	          0.00999999	          0.71411401	          0.00999999	          0.30023018	          0.37486705	          0.20776000	          0.20849955	          0.02855964	          0.01647150	          0.31102290	          0.01638550	          0.09888157	          0.01283413	          0.38618918	          0.02263962	          0.00999999	          0.07113093	          0.04960590	          0.21332812	
          0.85308146	         -6.60480142	         -2.08067433	          2.61945820	          1.72148208	          0.91412868	          0.00887961	         33.93251931	          4.20730776	          2.08340580	        -44.64680123	         18.64020517	          6.06706432	        -13.07699302	         -3.53750215	         -5.74207311	        -38.23172548	        -18.95413259	         33.50560954	         -9.73498119	          4.21994847	         -9.31785420	          0.05137544	          0.02129083	          0.01090825	          0.36862372	          0.30445903	          0.13530382	          0.19136379	          0.15827127	          0.05384563	          0.00999999	          0.81333124	          0.00999999	          0.34863538	          0.33089777	          0.25260313	          0.24893044	          0.05463473	          0.01453951	          0.27454209	          0.01446359	          0.10831125	          0.01132878	          0.34089190	          0.01998415	          0.00999999	          0.06278777	          0.04378747	          0.23301014	
          0.86105419	         -6.53612383	         -2.11872378	          2.24204928	          1.73818913	          0.91202085	          0.00966041	         33.00524028	          4.52632129	          2.33759238	        -45.32485564	         20.01623444	          7.30110853	        -11.07159833	         -3.72754180	         -5.91305758	        -42.80614095	        -19.02641196	         30.14365935	         -9.62557395	          4.37564992	         -8.94257256	          0.04534946	          0.01879356	          0.00999999	          0.36212228	          0.26874812	          0.11943363	          0.16891816	          0.13970716	          0.04752992	          0.00999999	          0.84553371	          0.00999999	          0.39296368	          0.29208578	          0.27108084	          0.25237084	          0.07334621	          0.01283413	          0.24905821	          0.01276711	          0.11234424	          0.00999999	          0.30090767	          0.03467681	          0.00999999	          0.05542320	          0.03865151	          0.25032153	
